<svg id="visual" viewBox="0 0 900 600" width="900" height="600" xmlns="http://www.w3.org/2000/svg" xmlns:xlink="http://www.w3.org/1999/xlink" version="1.1"><rect width="00" height="600" fill="#931F1F"></rect><g><g transform="translate(885 134)"><path d="M87.1 -30.1C98.2 5.8 82.3 48.6 50.3 72.7C18.3 96.8 -29.9 102.2 -61.3 80.3C-92.6 58.5 -107.2 9.5 -94.1 -29.1C-81.1 -67.7 -40.6 -95.8 -1.3 -95.4C38 -95 76.1 -66 87.1 -30.1Z" fill="#F7760E"></path></g><g transform="translate(429 301)"><path d="M85.4 -28.2C95.5 3.3 78 43.3 50 62.1C22 80.8 -16.6 78.4 -42.9 59.2C-69.3 40 -83.4 4.2 -74.2 -26.1C-65 -56.4 -32.5 -81.1 2.6 -82C37.6 -82.8 75.3 -59.8 85.4 -28.2Z" fill="#F7760E"></path></g><g transform="translate(2 340)"><path d="M75 -21.3C85.4 7.5 73.8 46.5 47.5 65.6C21.3 84.7 -19.5 83.9 -45.7 64.5C-71.8 45.1 -83.3 7.2 -73.2 -21.2C-63.1 -49.6 -31.6 -68.4 0.4 -68.6C32.3 -68.7 64.7 -50.1 75 -21.3Z" fill="#F7760E"></path></g></g></svg>